<svg width="269" height="95" viewBox="0 0 269 95" fill="none" xmlns="http://www.w3.org/2000/svg">
<path d="M32.3781 94.6699C31.9138 94.6699 31.4916 94.3955 31.3059 93.9691C31.2974 93.948 31.289 93.9311 31.2805 93.91C31.1286 93.4963 31.2299 93.0235 31.5296 92.7069C31.538 92.6985 31.5423 92.69 31.5507 92.6858C32.2852 91.9555 33.6234 90.0686 35.8608 85.2393C34.1215 80.4902 35.16 78.4217 35.3922 78.046C35.3922 78.0376 35.4006 78.0334 35.4049 78.0291C35.6412 77.6661 36.0338 77.4508 36.4644 77.4508C36.5657 77.4508 36.667 77.4635 36.7641 77.4888C36.819 77.5015 37.334 77.6028 38.1614 77.6028C38.4822 77.6028 38.8073 77.5859 39.1323 77.5563C39.6347 76.2899 40.1497 74.9517 40.6985 73.4911C39.2801 70.2913 39.8204 68.6914 40.0273 68.265C40.0357 68.2482 40.0442 68.2313 40.0526 68.2144C40.2679 67.8302 40.6689 67.5896 41.1037 67.5896C41.1671 67.5896 41.2346 67.5938 41.2979 67.6065C41.3317 67.6065 41.4921 67.6276 41.7538 67.6276C42.0156 67.6276 42.387 67.6107 42.8345 67.5348C43.1638 66.5849 43.5015 65.5845 43.8434 64.5502C42.653 62.1736 42.9316 60.8607 43.1131 60.3921C43.1258 60.3584 43.1427 60.3246 43.1595 60.2908C43.3664 59.894 43.7674 59.645 44.2065 59.645C44.2402 59.645 44.2782 59.645 44.3162 59.6492C44.3162 59.6492 44.3626 59.6492 44.426 59.6492C44.5906 59.6492 44.9621 59.6365 45.4518 59.5268C45.7557 58.5474 46.0512 57.5638 46.3298 56.6013C45.2618 55.1534 45.2745 54.1867 45.342 53.8194C45.342 53.8025 45.3505 53.7857 45.3547 53.7645C45.4602 53.3044 45.8444 52.9498 46.3172 52.8823C46.3551 52.8738 46.8828 52.781 47.5203 52.3757C47.6553 51.8649 47.7946 51.3288 47.9466 50.7336C46.8406 49.3532 46.9166 48.4287 46.9757 48.1585C47.0728 47.6984 47.4443 47.348 47.9044 47.2763C47.9466 47.2678 48.373 47.175 48.8669 46.8288C49.0526 45.9634 49.2088 45.1529 49.3397 44.4099C48.4279 43.629 48.2421 42.9578 48.2168 42.5947C48.2168 42.5483 48.2168 42.4976 48.2168 42.447C48.2506 42.0122 48.5249 41.6365 48.9302 41.4845C48.9724 41.4676 49.4368 41.2608 49.7787 40.6656V40.2392C49.7491 40.2054 49.7112 40.1674 49.6605 40.1168C49.4916 39.9606 49.2468 39.7791 48.9344 39.5807C48.6305 39.3865 48.2548 39.1796 47.7946 38.939C45.8359 37.9343 42.8978 36.7777 39.4996 35.4395L39.4743 35.431C27.3335 30.6609 8.98735 23.4296 2.41464 11.0145C1.59147 9.45678 0.970921 7.83576 0.569888 6.19786C0.189963 4.65283 0 3.0698 0 1.48678C0 0.997099 0.312383 0.558074 0.772515 0.39344C0.797844 0.384997 0.827394 0.376554 0.852722 0.368111C0.954035 0.338561 1.05535 0.325897 1.16088 0.325897C1.54503 0.325897 1.90385 0.51586 2.11914 0.832465C2.23312 1.00132 2.35976 1.1744 2.49484 1.35592C2.50329 1.36858 2.51173 1.38125 2.52017 1.39391C7.02862 7.30386 18.6417 12.2936 25.1722 14.742C34.5395 18.2584 43.607 20.4197 47.7187 20.7406C47.8749 20.7532 48.0142 20.7617 48.1408 20.7659C48.1788 20.7152 48.2168 20.6646 48.2548 20.6181C48.6094 20.1454 49.0484 19.5586 49.8294 19.5586C50.07 19.5586 50.3655 19.5586 52.7295 20.6435C52.7463 20.6519 52.759 20.6561 52.7759 20.6646C52.7928 20.6561 52.8139 20.6477 52.8308 20.6393C55.199 19.5586 55.4776 19.5586 55.7266 19.5586C56.5076 19.5586 56.9466 20.1411 57.297 20.6097C57.335 20.6646 57.3772 20.7152 57.4152 20.7659C57.5418 20.7575 57.6812 20.749 57.8373 20.7406C61.9448 20.424 71.0123 18.2626 80.3838 14.742C86.9185 12.2893 98.5527 7.28698 103.048 1.3728C103.048 1.3728 103.057 1.36014 103.061 1.35592C103.179 1.20395 103.298 1.03931 103.428 0.845129C103.631 0.541188 103.969 0.347004 104.332 0.330119C104.353 0.330119 104.378 0.330119 104.399 0.330119C104.526 0.330119 104.648 0.351226 104.767 0.389218C105.239 0.553853 105.556 0.992878 105.556 1.491C105.556 3.07403 105.366 4.65705 104.986 6.20208C104.585 7.83998 103.965 9.461 103.141 11.0145C96.5686 23.4338 78.2225 30.6651 66.0775 35.4479L66.0564 35.4564C62.654 36.7945 59.7201 37.9554 57.7571 38.9601C57.3097 39.1923 56.9255 39.4076 56.6174 39.6018C56.1108 39.9226 55.8786 40.1379 55.7731 40.2561V40.6824C56.115 41.2734 56.5709 41.4803 56.6174 41.4972C57.0479 41.6618 57.3308 42.0713 57.3308 42.5356C57.3308 42.7045 57.2886 43.0549 57.0142 43.5023C56.8284 43.8105 56.5583 44.1187 56.2079 44.4184C56.3387 45.174 56.4949 45.9845 56.6765 46.8372C57.1661 47.1792 57.5883 47.272 57.6389 47.2847C58.078 47.3522 58.4326 47.6689 58.5508 48.0952C58.5719 48.167 58.5972 48.2894 58.5972 48.4709C58.5972 48.9606 58.4115 49.7331 57.5967 50.7463C57.7318 51.2866 57.8753 51.8354 58.0231 52.3884C58.6563 52.7936 59.184 52.8907 59.2262 52.8949C59.6948 52.9583 60.0831 53.3129 60.1887 53.7772C60.252 54.0727 60.3449 55.069 59.2093 56.6098C59.4795 57.5343 59.7707 58.501 60.0916 59.5352C60.5813 59.6407 60.9527 59.6576 61.1174 59.6576C61.1722 59.6576 61.2145 59.6576 61.2313 59.6576C61.2651 59.6576 61.3031 59.6534 61.3369 59.6534C61.7759 59.6534 62.1769 59.8982 62.3838 60.2993C62.4007 60.333 62.4176 60.3668 62.4302 60.4006C62.5358 60.6708 62.5949 61.0211 62.5949 61.4053C62.5949 62.3129 62.2951 63.3724 61.6999 64.5544C62.0292 65.5465 62.3711 66.5469 62.7131 67.539C63.1605 67.6107 63.532 67.6276 63.7937 67.6276C64.0555 67.6276 64.2117 67.6107 64.2454 67.6065C64.3087 67.5938 64.3763 67.5896 64.4438 67.5896C64.8786 67.5896 65.2839 67.8302 65.4992 68.2144C65.5118 68.2355 65.5245 68.2566 65.533 68.2819C65.6343 68.493 65.8031 68.97 65.8031 69.7383C65.8031 70.8148 65.4865 72.0727 64.8575 73.4911C65.3936 74.9264 65.9171 76.2899 66.4194 77.5563C66.7445 77.5859 67.0695 77.6028 67.3904 77.6028C68.2178 77.6028 68.7412 77.4972 68.7919 77.4846C68.889 77.4635 68.9861 77.4508 69.0874 77.4508C69.5011 77.4508 69.8894 77.6577 70.1301 77.9996C70.1469 78.0249 70.1638 78.046 70.1765 78.0714C70.4931 78.6117 71.3585 80.6928 69.691 85.2393C72.0423 90.305 73.3932 92.0779 73.9968 92.6858C74.3303 93.0151 74.4316 93.5259 74.2543 93.9607C74.2543 93.9691 74.2459 93.9818 74.2417 93.9902C74.0517 94.4039 73.638 94.6741 73.1821 94.6741H32.3781V94.6699Z" fill="#F4EDEF"/>
<path d="M73.2623 93.4288C72.0254 92.1877 70.3664 89.2243 68.5555 85.2773C67.6268 83.251 66.6558 80.9672 65.6765 78.523C65.0222 76.8936 64.3678 75.1881 63.722 73.4447C63.1141 71.8068 62.5104 70.1351 61.9236 68.4508C61.4635 67.1253 61.0076 65.7871 60.5686 64.4573C60.1211 63.098 59.6863 61.743 59.2684 60.4006C58.8462 59.0371 58.441 57.6947 58.0568 56.3818C57.7234 55.2378 57.411 54.1149 57.1155 53.0258C56.8791 52.1477 56.6596 51.295 56.4527 50.4634C56.1868 49.4038 55.9504 48.3865 55.7393 47.424C55.4649 46.1745 55.2412 45.0136 55.0723 43.9582C54.8866 42.81 54.7684 41.7927 54.7219 40.9273H53.2782V93.6061H73.1821C73.2243 93.6061 73.2665 93.5808 73.2834 93.5428C73.3003 93.5005 73.2919 93.4541 73.2581 93.4246L73.2623 93.4288Z" fill="#B2B2B2"/>
<path d="M54.0001 40.9357H53.2782V93.6145H61.5479L54.0001 40.9357Z" fill="#F4EDEF"/>
<path d="M52.282 40.9357L48.1492 93.6145H57.411L53.2782 40.9357H52.282Z" fill="url(#paint0_linear_2038_987)"/>
<path d="M50.8383 40.9357C50.7961 41.8011 50.6736 42.8185 50.4921 43.9667C49.3017 43.1477 49.2806 42.561 49.2764 42.5314C49.2764 42.5061 49.2932 42.485 49.3143 42.4808C49.327 42.4765 50.2895 42.1262 50.8383 40.9357Z" fill="url(#paint1_linear_2038_987)"/>
<path d="M49.8251 47.4325C49.6141 48.3949 49.3735 49.4123 49.1117 50.4719C47.8917 49.1548 48.0099 48.4203 48.0142 48.3865C48.0226 48.3527 48.0479 48.3316 48.0775 48.3274C48.0944 48.3274 48.9471 48.1923 49.8251 47.4325Z" fill="url(#paint2_linear_2038_987)"/>
<path d="M48.4448 53.03C48.1535 54.1191 47.8369 55.242 47.5034 56.386C46.237 54.879 46.3805 54.0516 46.3889 54.0136C46.3974 53.9756 46.4312 53.9461 46.4649 53.9419C46.4818 53.9419 47.419 53.811 48.4405 53.0343L48.4448 53.03Z" fill="url(#paint3_linear_2038_987)"/>
<path d="M46.2918 60.4048C45.8739 61.743 45.4391 63.1023 44.9917 64.4616C43.6239 61.9456 44.0841 60.8354 44.1052 60.7805C44.1305 60.7341 44.1769 60.7045 44.2318 60.7088C44.2529 60.7088 45.1141 60.7805 46.2961 60.409L46.2918 60.4048Z" fill="url(#paint4_linear_2038_987)"/>
<path d="M43.6408 68.4508C43.054 70.1351 42.4546 71.8068 41.8425 73.4447C40.2764 70.152 40.9476 68.7885 40.9813 68.7252C41.0151 68.6661 41.0784 68.6323 41.1375 68.6492C41.1629 68.6534 42.1887 68.8012 43.6408 68.455V68.4508Z" fill="url(#paint5_linear_2038_987)"/>
<path d="M39.8838 78.523C38.9044 80.9672 37.9335 83.251 37.0048 85.2773C35.1516 80.5113 36.2365 78.6877 36.2871 78.599C36.3378 78.523 36.4264 78.485 36.5109 78.5062C36.5404 78.5146 37.8955 78.8228 39.8795 78.523H39.8838Z" fill="url(#paint6_linear_2038_987)"/>
<path d="M68.5555 85.2773C67.6268 83.251 66.6559 80.9672 65.6765 78.523C67.6605 78.8228 69.0114 78.5146 69.0409 78.5062C69.1296 78.485 69.2182 78.523 69.2689 78.599C69.3196 78.6877 70.4045 80.5113 68.5513 85.2773H68.5555Z" fill="url(#paint7_linear_2038_987)"/>
<path d="M63.722 73.4447C63.1141 71.8068 62.5104 70.1351 61.9237 68.4508C63.3758 68.7969 64.4016 68.6492 64.4227 68.645C64.486 68.6323 64.5494 68.6661 64.5831 68.721C64.6169 68.7843 65.2839 70.152 63.722 73.4405V73.4447Z" fill="url(#paint8_linear_2038_987)"/>
<path d="M60.5686 64.4616C60.1211 63.1023 59.6863 61.7472 59.2684 60.4048C60.4504 60.7763 61.3116 60.7088 61.3327 60.7045C61.3833 60.6961 61.434 60.7299 61.4551 60.7763C61.4804 60.8312 61.9405 61.9414 60.5686 64.4574V64.4616Z" fill="url(#paint9_linear_2038_987)"/>
<path d="M58.0569 56.386C57.7234 55.242 57.411 54.1191 57.1155 53.03C58.1413 53.8068 59.0742 53.9376 59.0911 53.9376C59.1291 53.9419 59.1586 53.9714 59.1671 54.0094C59.1755 54.0516 59.3191 54.8748 58.0526 56.3818L58.0569 56.386Z" fill="url(#paint10_linear_2038_987)"/>
<path d="M56.4527 50.4676C56.1868 49.4081 55.9504 48.3907 55.7393 47.4282C56.6174 48.1881 57.4701 48.319 57.487 48.3232C57.5165 48.3232 57.5418 48.3485 57.5461 48.3823C57.5545 48.416 57.6727 49.1506 56.4527 50.4676Z" fill="url(#paint11_linear_2038_987)"/>
<path d="M56.2839 42.5314C56.2839 42.5567 56.2628 43.1435 55.0723 43.9667C54.8866 42.8185 54.7684 41.8011 54.722 40.9357C55.275 42.1262 56.2332 42.4765 56.2459 42.4808C56.267 42.4892 56.2839 42.5103 56.2839 42.5314Z" fill="url(#paint12_linear_2038_987)"/>
<path d="M104.437 1.38547C104.437 1.38547 104.416 1.38125 104.404 1.38125C104.37 1.38125 104.336 1.39813 104.319 1.42768C104.188 1.61764 104.053 1.80761 103.91 1.99757C103.91 2.00179 103.901 2.00601 103.897 2.01023C102.821 16.1097 65.8664 24.409 59.9607 25.6458C59.8805 25.4221 59.7792 25.2026 59.6568 24.9915C59.3486 24.4554 58.918 23.9995 58.6014 23.4676C58.3144 22.9864 58.1117 22.4545 57.9598 21.9183C57.9471 21.8761 57.9344 21.8339 57.926 21.7875C57.5672 21.817 57.2379 21.8297 56.9466 21.8339C56.9382 21.8255 56.934 21.8212 56.9297 21.8128C57.0437 22.332 57.2252 22.8344 57.4363 23.3198C57.6474 23.7969 57.9175 24.2021 58.2257 24.6158C58.6141 25.1393 59.0362 25.6965 59.1544 26.355C59.2811 27.0642 58.9645 27.7903 58.7112 28.432C58.4283 29.1496 58.1919 29.8841 57.9851 30.6271C57.5798 32.0877 57.297 33.5778 56.9846 35.0638C56.7271 36.288 56.4443 37.508 56.0686 38.7026C56.419 38.4831 56.8284 38.2551 57.2886 38.0187C57.7529 36.3175 58.0653 34.5741 58.4494 32.8518C62.3796 32.0117 92.6681 25.1097 102.225 10.5206C102.994 9.06841 103.589 7.54448 103.977 5.9488C104.328 4.52197 104.518 3.04026 104.518 1.491C104.518 1.44457 104.488 1.40235 104.442 1.38969L104.437 1.38547ZM97.8562 13.9399C94.4959 17.2326 89.7427 20.348 83.7314 23.1932C73.237 28.166 62.1094 30.8424 58.7407 31.5853C58.7534 31.5431 58.7618 31.5009 58.7703 31.4587C58.956 30.7284 59.1713 30.0023 59.4246 29.2931C59.6863 28.5586 60.0198 27.8536 60.1211 27.0727C60.1338 26.984 60.138 26.8954 60.1422 26.8067C62.865 26.241 72.532 24.1092 82.0977 20.5506C91.4059 17.0848 97.9111 13.332 101.575 9.33858C100.621 10.9089 99.3801 12.4455 97.8562 13.9399Z" fill="#8BB4D9"/>
<path d="M47.7355 31.197C47.5498 30.4667 47.3345 29.7406 47.0812 29.0314C46.8322 28.3349 46.4565 27.6214 46.3974 26.8743C46.296 25.5741 47.4232 24.7382 47.9635 23.6744C48.2463 23.1214 48.4701 22.5262 48.6178 21.9226C48.6263 21.8846 48.6347 21.8466 48.6431 21.8086C48.6347 21.817 48.6263 21.8255 48.6178 21.8339C48.3265 21.8339 47.9973 21.817 47.6385 21.7875C47.516 22.2561 47.3514 22.7204 47.1319 23.1552C46.8828 23.6491 46.5282 24.067 46.2116 24.5145C45.9626 24.8691 45.7515 25.2448 45.6037 25.6416C39.698 24.409 2.73969 16.1097 1.66745 2.00601C1.66745 2.00179 1.65901 1.99757 1.65479 1.99335C1.51126 1.80761 1.37618 1.61765 1.24953 1.42768C1.21998 1.38969 1.17355 1.37281 1.13133 1.38547C1.0849 1.40235 1.05535 1.44035 1.05535 1.48678C1.05535 3.03604 1.24531 4.51775 1.59569 5.94458C1.98828 7.54027 2.57927 9.06419 3.34757 10.5206C12.9048 25.1097 43.1891 32.0075 47.1192 32.8518C47.3007 33.6749 47.4654 34.5023 47.6427 35.3297C47.8326 36.2331 48.0353 37.1323 48.2801 38.023C48.7445 38.2594 49.1539 38.4915 49.5043 38.7111C48.7318 36.2584 48.373 33.696 47.7355 31.2012V31.197ZM21.8331 23.1932C15.8218 20.3438 11.0727 17.2326 7.70827 13.9399C6.18012 12.4455 4.93903 10.9089 3.98922 9.33858C7.64917 13.332 14.1586 17.0848 23.4667 20.5506C33.024 24.1092 42.691 26.241 45.418 26.8067C45.4433 27.461 45.6797 28.0942 45.9161 28.6937C46.199 29.4113 46.4354 30.1458 46.6422 30.893C46.7055 31.1252 46.7646 31.3532 46.8237 31.5853C43.455 30.8424 32.3232 28.166 21.8331 23.1932Z" fill="#8BB4D9"/>
<path d="M45.6037 25.6458C45.7473 25.2448 45.9626 24.8691 46.2116 24.5187C46.5282 24.067 46.8828 23.6533 47.1319 23.1594C47.3514 22.7246 47.516 22.2645 47.6385 21.7917C43.3242 21.4582 34.1638 19.2462 24.8049 15.7298C18.0676 13.2012 6.30677 8.1186 1.66746 2.00602C2.73969 16.1097 39.698 24.409 45.6037 25.6458Z" fill="url(#paint13_linear_2038_987)"/>
<path d="M97.8562 13.9399C99.3843 12.4455 100.625 10.9089 101.575 9.33858C97.9153 13.332 91.4059 17.0848 82.0977 20.5506C72.5363 24.1135 62.865 26.241 60.1422 26.8067C60.1422 26.8954 60.1338 26.984 60.1211 27.0727C60.0198 27.8536 59.6863 28.5586 59.4246 29.2931C59.1713 30.0023 58.9603 30.7284 58.7703 31.4587C58.7576 31.5009 58.7492 31.5431 58.7407 31.5853C62.1094 30.8424 73.2412 28.166 83.7314 23.1932C89.7427 20.3438 94.4917 17.2326 97.8562 13.9399Z" fill="url(#paint14_linear_2038_987)"/>
<path d="M47.1192 32.8518C43.1891 32.0117 12.9006 25.1097 3.34756 10.5206C9.73454 22.5938 28.0427 29.8081 39.8669 34.4643C43.2651 35.8025 46.2707 36.9887 48.2801 38.0187C48.0353 37.128 47.8326 36.2289 47.6427 35.3255C47.4696 34.4981 47.305 33.6707 47.1192 32.8475V32.8518Z" fill="url(#paint15_linear_2038_987)"/>
<path d="M3.98923 9.33858C4.94326 10.9089 6.18435 12.4455 7.70828 13.9399C11.0685 17.2326 15.8218 20.348 21.8331 23.1932C32.3275 28.166 43.4593 30.8424 46.8237 31.5853C46.7646 31.3532 46.7055 31.121 46.6422 30.893C46.4354 30.1501 46.199 29.4155 45.9161 28.6937C45.6797 28.09 45.4433 27.4568 45.418 26.8067C42.691 26.241 33.024 24.1092 23.4667 20.5506C14.1586 17.0848 7.6534 13.332 3.98923 9.33858Z" fill="url(#paint16_linear_2038_987)"/>
<path d="M58.4452 32.8518C58.0611 34.5783 57.7487 36.3175 57.2843 38.0187C59.298 36.9887 62.2994 35.8025 65.7018 34.4643C77.5259 29.8081 95.8341 22.5895 102.221 10.5206C92.6639 25.1097 62.3796 32.0117 58.4452 32.8518Z" fill="url(#paint17_linear_2038_987)"/>
<path d="M58.6014 23.4718C58.918 24.0037 59.3486 24.4554 59.6568 24.9957C59.7792 25.2068 59.8805 25.4263 59.9607 25.6501C65.8664 24.4132 102.821 16.1139 103.897 2.01446C99.2534 8.12704 87.4926 13.2054 80.7637 15.734C71.4007 19.2504 62.2445 21.4624 57.926 21.7959C57.9386 21.8381 57.9471 21.8846 57.9598 21.9268C58.1117 22.4629 58.3186 22.9948 58.6014 23.476V23.4718Z" fill="url(#paint18_linear_2038_987)"/>
<path d="M58.7112 28.4362C58.4283 29.1538 58.1877 29.8883 57.9851 30.6313C57.5798 32.0919 57.297 33.5821 56.9846 35.068C56.7271 36.2922 56.4443 37.5122 56.0686 38.7026C55.3552 39.1543 54.8866 39.568 54.7346 39.9564V40.9357L52.2904 60.4977L48.1577 93.6145H32.3908C32.3443 93.6145 32.3063 93.5892 32.2852 93.547C32.2726 93.509 32.281 93.4584 32.3106 93.4288C33.5517 92.1877 35.2064 89.2243 37.0174 85.2773C37.9461 83.251 38.917 80.9715 39.8922 78.5273C40.5465 76.8978 41.2008 75.1924 41.8509 73.4489C42.4588 71.811 43.0625 70.1394 43.645 68.455C44.1094 67.1295 44.561 65.7955 45.0001 64.4658C45.4475 63.1065 45.8866 61.7514 46.3003 60.409C46.7266 59.0455 47.1277 57.7031 47.5118 56.3903C47.8453 55.2463 48.1577 54.1234 48.4532 53.0343C48.6896 52.1604 48.9091 51.3035 49.1202 50.4761C49.3819 49.4165 49.6225 48.3992 49.8336 47.4367C50.1037 46.1871 50.3317 45.0263 50.5006 43.9709C50.6821 42.8227 50.8045 41.8053 50.8467 40.94V39.9606C50.6905 39.5764 50.2262 39.1627 49.5127 38.7111C48.7402 36.2584 48.3814 33.696 47.744 31.2054C47.5582 30.4751 47.3472 29.749 47.0939 29.0398C46.8448 28.3391 46.4691 27.6299 46.41 26.8827C46.3087 25.5867 47.44 24.7467 47.9762 23.6871C48.259 23.1341 48.4827 22.5389 48.6305 21.931C48.6389 21.8972 48.6474 21.855 48.6558 21.817C48.8247 21.6397 48.9766 21.4413 49.1117 21.2598C49.3777 20.901 49.5887 20.6181 49.8462 20.6181C50.1037 20.6181 51.4926 21.2303 52.3073 21.606C52.5142 21.6988 52.6872 21.779 52.7928 21.8297C52.8983 21.779 53.0756 21.6988 53.2867 21.6017C54.1056 21.226 55.4818 20.6181 55.7435 20.6181C56.0053 20.6181 56.2121 20.901 56.4823 21.2598C56.6174 21.4413 56.7693 21.6439 56.9424 21.8212C57.0564 22.3405 57.2337 22.8428 57.449 23.3283C57.66 23.8053 57.926 24.2106 58.2384 24.6243C58.631 25.1477 59.0489 25.7049 59.1671 26.3635C59.2937 27.0727 58.9771 27.7987 58.7238 28.4446L58.7112 28.4362Z" fill="url(#paint19_linear_2038_987)"/>
<path d="M215.878 87.1685L217.651 76.4841H224.376L224.139 77.8898H219.057L218.533 81.0728H223.257L223.021 82.4658H218.288L217.744 85.7627H222.877L222.649 87.1685H215.878Z" fill="#F4EDEF"/>
<path d="M223.037 87.1685L228.293 81.0939L228.09 82.3181L225.081 76.4799H226.908L227.968 78.5864C228.141 78.9156 228.276 79.2027 228.382 79.4475C228.483 79.6924 228.576 79.9288 228.656 80.1567C228.736 80.3847 228.829 80.6506 228.931 80.9546H228.58C228.783 80.6591 228.964 80.3931 229.125 80.1609C229.285 79.9288 229.462 79.6924 229.648 79.4475C229.834 79.2027 230.07 78.9156 230.349 78.5864L232.143 76.4799H234.072L229.154 82.2379L229.357 81.0474L232.54 87.1642H230.691L229.37 84.6103C229.218 84.3148 229.091 84.0573 228.998 83.8462C228.901 83.6351 228.817 83.4241 228.736 83.2172C228.656 83.0104 228.572 82.774 228.475 82.4996H228.774C228.593 82.774 228.428 83.0104 228.28 83.2172C228.133 83.4241 227.972 83.6309 227.799 83.8462C227.626 84.0573 227.415 84.3148 227.162 84.6103L224.975 87.1642H223.037V87.1685Z" fill="#F4EDEF"/>
<path d="M233.013 87.1685L234.786 76.4841H238.614C239.433 76.4841 240.092 76.6361 240.59 76.9358C241.088 77.2355 241.434 77.6492 241.624 78.1684C241.814 78.6877 241.852 79.2787 241.742 79.9414C241.637 80.6 241.405 81.1952 241.042 81.7186C240.679 82.2463 240.197 82.66 239.598 82.9682C238.994 83.2721 238.281 83.4283 237.454 83.4283H234.836L235.064 82.0437H237.517C238.053 82.0437 238.496 81.9508 238.855 81.7693C239.21 81.5835 239.488 81.3345 239.691 81.0179C239.894 80.7013 240.024 80.3467 240.083 79.9541C240.151 79.5573 240.134 79.2027 240.033 78.8945C239.932 78.5821 239.733 78.3373 239.438 78.16C239.142 77.9827 238.724 77.8898 238.188 77.8898H236.187L234.646 87.1769H233.013V87.1685Z" fill="#F4EDEF"/>
<path d="M245.871 87.312C245.048 87.312 244.33 87.1389 243.714 86.797C243.098 86.4508 242.616 85.9569 242.274 85.311C241.932 84.6652 241.764 83.8927 241.764 82.9893C241.764 82.1323 241.899 81.3092 242.165 80.5155C242.431 79.7219 242.819 79.0127 243.317 78.3837C243.819 77.759 244.423 77.2608 245.128 76.8936C245.833 76.5263 246.622 76.3406 247.496 76.3406C248.319 76.3406 249.037 76.5136 249.649 76.8556C250.261 77.2017 250.738 77.6914 251.08 78.3373C251.422 78.9789 251.591 79.7515 251.591 80.6591C251.591 81.5667 251.456 82.3476 251.19 83.1412C250.924 83.9349 250.54 84.6441 250.037 85.273C249.539 85.902 248.936 86.4002 248.235 86.7632C247.534 87.1305 246.745 87.312 245.867 87.312H245.871ZM245.934 85.8218C246.576 85.8218 247.146 85.6741 247.648 85.3828C248.151 85.0873 248.573 84.6947 248.923 84.1966C249.269 83.6985 249.531 83.1455 249.712 82.5418C249.89 81.9339 249.983 81.3176 249.983 80.6928C249.983 80.0681 249.877 79.5404 249.662 79.1182C249.451 78.6961 249.151 78.3753 248.767 78.16C248.383 77.9447 247.944 77.8392 247.441 77.8392C246.795 77.8392 246.221 77.9869 245.719 78.2782C245.217 78.5737 244.79 78.9663 244.444 79.4644C244.094 79.9625 243.828 80.5113 243.646 81.1192C243.465 81.7229 243.372 82.3392 243.372 82.9639C243.372 83.5887 243.477 84.1164 243.693 84.5385C243.908 84.9607 244.208 85.2815 244.592 85.501C244.976 85.7205 245.423 85.826 245.93 85.826L245.934 85.8218Z" fill="#F4EDEF"/>
<path d="M251.241 87.1685L253.014 76.4841H256.842C257.674 76.4841 258.341 76.6276 258.839 76.9147C259.337 77.2017 259.683 77.5986 259.869 78.1051C260.055 78.6117 260.093 79.19 259.983 79.8401C259.878 80.4944 259.645 81.0685 259.291 81.5667C258.936 82.0606 258.459 82.4447 257.864 82.7233C257.269 82.9977 256.555 83.137 255.724 83.137H252.849L253.077 81.7397H255.796C256.323 81.7397 256.762 81.6638 257.117 81.5118C257.471 81.3598 257.746 81.1445 257.94 80.8575C258.134 80.5746 258.269 80.2369 258.333 79.8443C258.434 79.2196 258.333 78.7341 258.029 78.3964C257.725 78.0587 257.189 77.8856 256.42 77.8856H254.419L252.879 87.1727H251.245L251.241 87.1685ZM257.315 87.1685L255.53 82.3434H257.336L259.173 87.1685H257.315Z" fill="#F4EDEF"/>
<path d="M260.473 77.8898L260.709 76.4841H269L268.772 77.8898H265.45L263.909 87.1685H262.275L263.812 77.8898H260.477H260.473Z" fill="#F4EDEF"/>
<path d="M89.8482 37.6979C84.5292 37.6979 79.6071 40.3658 76.6859 44.8279C75.0438 47.3354 74.1573 50.2439 74.1277 53.2453V53.6126C74.1277 59.4381 76.9392 64.107 79.0541 67.1126C80.3416 68.9405 81.7389 70.6501 83.0897 72.3049C86.3064 76.2393 89.101 79.6586 89.2825 83.2088H89.253C88.6831 83.2088 88.2187 83.6731 88.2187 84.243C88.2187 84.5343 88.3369 84.796 88.5311 84.9818C88.0921 85.2351 87.7966 85.7036 87.7966 86.244C87.7966 86.7843 88.0921 87.2571 88.5311 87.5062C88.3369 87.6961 88.2187 87.9536 88.2187 88.2449C88.2187 88.5066 88.32 88.7515 88.4847 88.9372C87.8852 89.5662 87.5518 90.3936 87.5518 91.2717C87.5518 93.1417 89.0757 94.6657 90.9458 94.6657C92.8158 94.6657 94.3398 93.1417 94.3398 91.2717C94.3398 90.3894 94.0063 89.562 93.4068 88.9372C93.5757 88.7515 93.6728 88.5066 93.6728 88.2449C93.6728 87.9536 93.5546 87.6919 93.3604 87.5062C93.7994 87.2529 94.0949 86.7843 94.0949 86.244C94.0949 85.7036 93.7994 85.2308 93.3604 84.9818C93.5546 84.7918 93.6728 84.5301 93.6728 84.243C93.6728 83.6731 93.2084 83.2088 92.6385 83.2088H92.5879C92.4064 78.903 89.0757 74.7407 85.5593 70.3462C85.3102 70.0338 85.0611 69.7214 84.8078 69.409C84.411 68.9109 84.0142 68.4086 83.6216 67.9062C83.2881 67.4714 82.942 67.024 82.6127 66.5765C80.3332 63.5202 77.6652 59.4297 77.2389 54.9128C77.2178 54.6975 77.2009 54.4906 77.1924 54.2922L77.184 54.0643C77.184 53.9165 77.1756 53.7646 77.1756 53.6126C77.1756 49.083 79.6155 44.8701 83.5456 42.6158C85.4579 41.5183 87.6362 40.9399 89.8482 40.9399C94.5804 40.9399 98.8355 43.5488 101.014 47.6098C98.8229 45.5582 95.9903 44.2833 92.9678 44.03L91.4481 43.9034L92.7441 44.7097C96.041 46.7655 98.1728 51.2908 98.1728 56.2467C98.1728 61.743 95.6146 66.5807 91.8027 68.2862L89.4556 69.3373L92.0011 68.9869C98.5358 68.0877 103.846 63.1487 105.223 56.6942L105.231 56.652C105.455 55.5966 105.569 54.5033 105.569 53.4142C105.569 44.7476 98.5189 37.6937 89.8524 37.6937L89.8482 37.6979ZM90.9289 89.9546C91.6676 89.9546 92.2671 90.554 92.2671 91.2928C92.2671 92.0315 91.6676 92.631 90.9289 92.631C90.1901 92.631 89.5907 92.0315 89.5907 91.2928C89.5907 90.554 90.1901 89.9546 90.9289 89.9546Z" fill="#F4EDEF"/>
<path d="M128.58 48.8677C127.955 47.6435 127.123 46.6642 126.106 45.9634C125.093 45.2627 123.982 44.7603 122.8 44.4648C121.623 44.1693 120.462 44.0216 119.352 44.0216C117.904 44.0216 116.456 44.2369 115.041 44.6674C113.627 45.098 112.336 45.7861 111.208 46.7106C110.077 47.6393 109.186 48.8888 108.562 50.4254L108.528 50.5099L111.968 51.675L111.998 51.599C112.327 50.8222 112.825 50.1004 113.48 49.4461C114.13 48.796 114.966 48.2599 115.958 47.8546C116.95 47.4493 118.119 47.2425 119.428 47.2425C120.816 47.2425 122.011 47.4831 122.978 47.9644C123.94 48.4414 124.683 49.1337 125.181 50.0202C125.684 50.9109 125.937 51.9873 125.937 53.2284V53.8828C125.937 54.5624 125.667 55.0394 125.114 55.3434C124.548 55.6557 123.712 55.8837 122.636 56.0272C121.542 56.1708 120.217 56.3438 118.655 56.5422C117.064 56.7449 115.59 57.0235 114.273 57.3739C112.952 57.7284 111.787 58.2181 110.812 58.8345C109.828 59.455 109.064 60.2528 108.541 61.2111C108.017 62.1694 107.747 63.364 107.747 64.7697C107.747 66.5934 108.173 68.168 109.009 69.4513C109.845 70.7346 110.985 71.7224 112.395 72.3809C113.8 73.0395 115.388 73.3729 117.106 73.3729C118.638 73.3729 120.002 73.1239 121.158 72.6342C122.315 72.1445 123.303 71.4986 124.096 70.7135C124.873 69.9452 125.473 69.1262 125.878 68.2819H125.988V72.7397H129.512V53.5282C129.512 51.6581 129.196 50.0919 128.571 48.8635L128.58 48.8677ZM125.945 58.0239V61.8443C125.945 63.3513 125.599 64.7529 124.924 66.0108C124.244 67.2688 123.273 68.2819 122.032 69.0249C120.791 69.7679 119.305 70.1478 117.617 70.1478C116.426 70.1478 115.341 69.9367 114.4 69.5272C113.463 69.1178 112.711 68.5141 112.167 67.7416C111.626 66.9691 111.352 66.0193 111.352 64.9175C111.352 63.8157 111.639 62.9292 112.2 62.2242C112.766 61.5193 113.61 60.9494 114.708 60.5399C115.814 60.1262 117.156 59.8223 118.706 59.6365C119.25 59.569 119.883 59.4888 120.647 59.3832C121.39 59.2819 122.133 59.1637 122.855 59.0286C123.586 58.8936 124.248 58.7331 124.818 58.5474C125.299 58.3912 125.675 58.2139 125.937 58.0197L125.945 58.0239Z" fill="#F4EDEF"/>
<path d="M153.178 48.7538C152.359 47.2172 151.21 46.031 149.767 45.2289C148.323 44.4268 146.618 44.0216 144.697 44.0216C142.557 44.0216 140.627 44.5788 138.968 45.6721C137.736 46.4869 136.735 47.69 135.984 49.2603L135.967 44.3973H132.493V72.7397H136.094V55.0943C136.094 53.5028 136.431 52.1098 137.102 50.9447C137.769 49.7796 138.698 48.8762 139.851 48.2556C141.007 47.6351 142.333 47.3227 143.789 47.3227C145.921 47.3227 147.648 47.9897 148.918 49.2983C150.189 50.6112 150.835 52.4264 150.835 54.6933V72.744H154.41V54.44C154.41 52.2026 153.997 50.2903 153.178 48.7538Z" fill="#F4EDEF"/>
<path d="M178.202 48.8677C177.577 47.6435 176.746 46.6642 175.728 45.9634C174.715 45.2627 173.605 44.7603 172.423 44.4648C171.245 44.1693 170.084 44.0216 168.974 44.0216C167.526 44.0216 166.078 44.2369 164.664 44.6674C163.25 45.098 161.958 45.7861 160.831 46.7106C159.7 47.6393 158.809 48.8888 158.184 50.4254L158.15 50.5099L161.591 51.675L161.62 51.599C161.95 50.8222 162.448 50.1004 163.102 49.4461C163.752 48.796 164.588 48.2599 165.58 47.8546C166.572 47.4493 167.741 47.2425 169.05 47.2425C170.439 47.2425 171.634 47.4831 172.6 47.9644C173.563 48.4414 174.306 49.1337 174.804 50.0202C175.306 50.9109 175.559 51.9873 175.559 53.2284V53.8828C175.559 54.5624 175.289 55.0394 174.736 55.3434C174.171 55.6557 173.335 55.8837 172.258 56.0272C171.165 56.1708 169.839 56.3438 168.278 56.5422C166.686 56.7449 165.213 57.0235 163.896 57.3739C162.574 57.7284 161.409 58.2181 160.434 58.8345C159.451 59.455 158.687 60.2528 158.163 61.2111C157.64 62.1694 157.369 63.364 157.369 64.7697C157.369 66.5934 157.796 68.168 158.632 69.4513C159.467 70.7346 160.607 71.7224 162.017 72.3809C163.423 73.0395 165.01 73.3729 166.728 73.3729C168.261 73.3729 169.624 73.1239 170.781 72.6342C171.937 72.1445 172.925 71.4986 173.719 70.7135C174.496 69.9452 175.095 69.1262 175.5 68.2819H175.61V72.7397H179.135V53.5282C179.135 51.6581 178.818 50.0919 178.194 48.8635L178.202 48.8677ZM175.568 58.0239V61.8443C175.568 63.3513 175.222 64.7529 174.546 66.0108C173.867 67.2688 172.896 68.2819 171.655 69.0249C170.414 69.7679 168.928 70.1478 167.239 70.1478C166.049 70.1478 164.964 69.9367 164.022 69.5272C163.085 69.1178 162.334 68.5141 161.789 67.7416C161.249 66.9691 160.975 66.0193 160.975 64.9175C160.975 63.8157 161.262 62.9292 161.823 62.2242C162.389 61.5193 163.233 60.9494 164.331 60.5399C165.437 60.1262 166.779 59.8223 168.328 59.6365C168.873 59.569 169.506 59.4888 170.27 59.3832C171.013 59.2819 171.756 59.1637 172.478 59.0286C173.208 58.8936 173.871 58.7331 174.441 58.5474C174.922 58.3912 175.298 58.2139 175.559 58.0197L175.568 58.0239Z" fill="#F4EDEF"/>
<path d="M194.26 69.4766L194.176 69.4935C193.876 69.561 193.551 69.6243 193.209 69.6834C192.871 69.7425 192.584 69.7721 192.344 69.7721C191.103 69.9029 190.17 69.6497 189.57 69.0165C188.967 68.3832 188.663 67.3659 188.663 66.0024V47.5464H194.459V44.3973H188.663V37.6937H185.062V44.3973H180.878V47.5464H185.062V66.2303C185.062 68.4297 185.712 70.1647 186.991 71.3931C188.131 72.4907 189.684 73.0437 191.609 73.0437C191.846 73.0437 192.086 73.0352 192.331 73.0183C192.787 73.0014 193.243 72.9592 193.69 72.8917C194.138 72.8242 194.556 72.7313 194.927 72.6131L195.003 72.5878L194.26 69.4766Z" fill="#F4EDEF"/>
<path d="M215.777 44.4015V62.0511C215.777 63.6426 215.439 65.0357 214.768 66.2008C214.101 67.3659 213.176 68.2693 212.02 68.8898C210.863 69.5104 209.537 69.8227 208.081 69.8227C205.949 69.8227 204.223 69.1558 202.952 67.8471C201.681 66.5343 201.036 64.7191 201.036 62.4522V44.4015H197.435V62.7055C197.435 64.9259 197.848 66.834 198.667 68.379C199.486 69.9241 200.643 71.1145 202.104 71.9165C203.56 72.7186 205.265 73.1239 207.173 73.1239C209.28 73.1239 211.196 72.5751 212.864 71.4986C214.113 70.6881 215.127 69.4724 215.878 67.864V72.7482H219.377V44.4057H215.777V44.4015Z" fill="#F4EDEF"/>
<path d="M243.03 48.7538C242.211 47.2172 241.063 46.031 239.619 45.2289C238.175 44.4268 236.47 44.0216 234.549 44.0216C232.409 44.0216 230.48 44.5788 228.821 45.6721C227.588 46.4869 226.588 47.69 225.836 49.2603L225.819 44.3973H222.345V72.7397H225.946V55.0943C225.946 53.5028 226.284 52.1098 226.955 50.9447C227.622 49.7796 228.551 48.8762 229.703 48.2556C230.86 47.6351 232.185 47.3227 233.642 47.3227C235.773 47.3227 237.5 47.9897 238.771 49.2983C240.041 50.6112 240.687 52.4264 240.687 54.6933V72.744H244.263V54.44C244.263 52.2026 243.849 50.2903 243.03 48.7538Z" fill="#F4EDEF"/>
<path d="M268.059 48.8677C267.434 47.6435 266.602 46.6642 265.585 45.9634C264.572 45.2627 263.462 44.7603 262.28 44.4648C261.102 44.1693 259.941 44.0216 258.831 44.0216C257.383 44.0216 255.935 44.2369 254.521 44.6674C253.106 45.098 251.815 45.7861 250.688 46.7106C249.556 47.6393 248.666 48.8888 248.041 50.4254L248.007 50.5099L251.447 51.675L251.477 51.599C251.806 50.8222 252.304 50.1004 252.959 49.4461C253.609 48.796 254.445 48.2599 255.437 47.8546C256.429 47.4493 257.598 47.2425 258.907 47.2425C260.296 47.2425 261.49 47.4831 262.457 47.9644C263.419 48.4414 264.162 49.1337 264.66 50.0202C265.163 50.9109 265.416 51.9873 265.416 53.2284V53.8828C265.416 54.5624 265.146 55.0394 264.593 55.3434C264.027 55.6557 263.191 55.8837 262.115 56.0272C261.022 56.1708 259.696 56.3438 258.134 56.5422C256.543 56.7449 255.069 57.0235 253.752 57.3739C252.431 57.7284 251.266 58.2181 250.291 58.8345C249.307 59.455 248.543 60.2528 248.02 61.2111C247.496 62.1694 247.226 63.364 247.226 64.7697C247.226 66.5934 247.652 68.168 248.488 69.4513C249.324 70.7346 250.464 71.7224 251.874 72.3809C253.28 73.0395 254.867 73.3729 256.585 73.3729C258.117 73.3729 259.481 73.1239 260.637 72.6342C261.794 72.1445 262.782 71.4986 263.576 70.7135C264.352 69.9452 264.952 69.1262 265.357 68.2819H265.467V72.7397H268.992V53.5282C268.992 51.6581 268.675 50.0919 268.05 48.8635L268.059 48.8677ZM265.425 58.0239V61.8443C265.425 63.3513 265.078 64.7529 264.403 66.0108C263.723 67.2688 262.752 68.2819 261.511 69.0249C260.27 69.7679 258.784 70.1478 257.096 70.1478C255.905 70.1478 254.82 69.9367 253.879 69.5272C252.942 69.1178 252.19 68.5141 251.646 67.7416C251.106 66.9691 250.831 66.0193 250.831 64.9175C250.831 63.8157 251.118 62.9292 251.68 62.2242C252.245 61.5193 253.09 60.9494 254.187 60.5399C255.293 60.1262 256.636 59.8223 258.185 59.6365C258.729 59.569 259.363 59.4888 260.127 59.3832C260.87 59.2819 261.613 59.1637 262.334 59.0286C263.065 58.8936 263.728 58.7331 264.297 58.5474C264.779 58.3912 265.154 58.2139 265.416 58.0197L265.425 58.0239Z" fill="#F4EDEF"/>
<defs>
<linearGradient id="paint0_linear_2038_987" x1="48.1492" y1="67.273" x2="57.411" y2="67.273" gradientUnits="userSpaceOnUse">
<stop stop-color="#F59C00"/>
<stop offset="1" stop-color="#FBBA00"/>
</linearGradient>
<linearGradient id="paint1_linear_2038_987" x1="49.2764" y1="42.4512" x2="50.8383" y2="42.4512" gradientUnits="userSpaceOnUse">
<stop stop-color="#F59C00"/>
<stop offset="1" stop-color="#FBBA00"/>
</linearGradient>
<linearGradient id="paint2_linear_2038_987" x1="48.0057" y1="48.9522" x2="49.8251" y2="48.9522" gradientUnits="userSpaceOnUse">
<stop stop-color="#F59C00"/>
<stop offset="1" stop-color="#FBBA00"/>
</linearGradient>
<linearGradient id="paint3_linear_2038_987" x1="46.3805" y1="54.7059" x2="48.4448" y2="54.7059" gradientUnits="userSpaceOnUse">
<stop stop-color="#F59C00"/>
<stop offset="1" stop-color="#FBBA00"/>
</linearGradient>
<linearGradient id="paint4_linear_2038_987" x1="44.0123" y1="62.4311" x2="46.2918" y2="62.4311" gradientUnits="userSpaceOnUse">
<stop stop-color="#F59C00"/>
<stop offset="1" stop-color="#FBBA00"/>
</linearGradient>
<linearGradient id="paint5_linear_2038_987" x1="40.8083" y1="70.9499" x2="43.6408" y2="70.9499" gradientUnits="userSpaceOnUse">
<stop stop-color="#F59C00"/>
<stop offset="1" stop-color="#FBBA00"/>
</linearGradient>
<linearGradient id="paint6_linear_2038_987" x1="35.9283" y1="81.8917" x2="39.8838" y2="81.8917" gradientUnits="userSpaceOnUse">
<stop stop-color="#F59C00"/>
<stop offset="1" stop-color="#FBBA00"/>
</linearGradient>
<linearGradient id="paint7_linear_2038_987" x1="65.6765" y1="81.8917" x2="69.6319" y2="81.8917" gradientUnits="userSpaceOnUse">
<stop stop-color="#F59C00"/>
<stop offset="1" stop-color="#FBBA00"/>
</linearGradient>
<linearGradient id="paint8_linear_2038_987" x1="61.9237" y1="70.9499" x2="64.7562" y2="70.9499" gradientUnits="userSpaceOnUse">
<stop stop-color="#F59C00"/>
<stop offset="1" stop-color="#FBBA00"/>
</linearGradient>
<linearGradient id="paint9_linear_2038_987" x1="59.2684" y1="62.4311" x2="61.548" y2="62.4311" gradientUnits="userSpaceOnUse">
<stop stop-color="#F59C00"/>
<stop offset="1" stop-color="#FBBA00"/>
</linearGradient>
<linearGradient id="paint10_linear_2038_987" x1="57.1155" y1="54.7059" x2="59.1797" y2="54.7059" gradientUnits="userSpaceOnUse">
<stop stop-color="#F59C00"/>
<stop offset="1" stop-color="#FBBA00"/>
</linearGradient>
<linearGradient id="paint11_linear_2038_987" x1="55.7393" y1="48.9522" x2="57.5545" y2="48.9522" gradientUnits="userSpaceOnUse">
<stop stop-color="#F59C00"/>
<stop offset="1" stop-color="#FBBA00"/>
</linearGradient>
<linearGradient id="paint12_linear_2038_987" x1="54.7262" y1="42.4512" x2="56.2839" y2="42.4512" gradientUnits="userSpaceOnUse">
<stop stop-color="#F59C00"/>
<stop offset="1" stop-color="#FBBA00"/>
</linearGradient>
<linearGradient id="paint13_linear_2038_987" x1="-132.691" y1="104.084" x2="224.996" y2="-102.427" gradientUnits="userSpaceOnUse">
<stop stop-color="#023B7E"/>
<stop offset="0.5" stop-color="#004899"/>
<stop offset="1" stop-color="#007BC2"/>
</linearGradient>
<linearGradient id="paint14_linear_2038_987" x1="-113.454" y1="132.185" x2="239.78" y2="-71.7545" gradientUnits="userSpaceOnUse">
<stop stop-color="#023B7E"/>
<stop offset="0.5" stop-color="#004899"/>
<stop offset="1" stop-color="#007BC2"/>
</linearGradient>
<linearGradient id="paint15_linear_2038_987" x1="-128.094" y1="113.13" x2="230.953" y2="-94.1659" gradientUnits="userSpaceOnUse">
<stop stop-color="#023B7E"/>
<stop offset="0.5" stop-color="#004899"/>
<stop offset="1" stop-color="#007BC2"/>
</linearGradient>
<linearGradient id="paint16_linear_2038_987" x1="-129.58" y1="109.943" x2="228.719" y2="-96.9224" gradientUnits="userSpaceOnUse">
<stop stop-color="#023B7E"/>
<stop offset="0.5" stop-color="#004899"/>
<stop offset="1" stop-color="#007BC2"/>
</linearGradient>
<linearGradient id="paint17_linear_2038_987" x1="-111.508" y1="135.136" x2="241.451" y2="-68.6433" gradientUnits="userSpaceOnUse">
<stop stop-color="#023B7E"/>
<stop offset="0.5" stop-color="#004899"/>
<stop offset="1" stop-color="#007BC2"/>
</linearGradient>
<linearGradient id="paint18_linear_2038_987" x1="-115.784" y1="128.475" x2="237.597" y2="-75.5495" gradientUnits="userSpaceOnUse">
<stop stop-color="#023B7E"/>
<stop offset="0.5" stop-color="#004899"/>
<stop offset="1" stop-color="#007BC2"/>
</linearGradient>
<linearGradient id="paint19_linear_2038_987" x1="-103.686" y1="145.234" x2="245.998" y2="-56.6587" gradientUnits="userSpaceOnUse">
<stop stop-color="#023B7E"/>
<stop offset="0.5" stop-color="#004899"/>
<stop offset="1" stop-color="#007BC2"/>
</linearGradient>
</defs>
</svg>
